<svg width="28" height="28" viewBox="0 0 28 28" fill="none" xmlns="http://www.w3.org/2000/svg">
<path d="M25.9001 11.9L21.4548 10.9121L23.8995 7.0703L20.9298 4.10042L17.088 6.5453L16.1001 2.09998H11.9001L10.9122 6.5453L7.07042 4.10042L4.1007 7.0703L6.54542 10.9121L2.1001 11.9V16.1L6.54542 17.0879L4.1007 20.9296L7.07042 23.8994L10.9122 21.4546L11.9001 25.9H16.1001L17.088 21.4547L20.9298 23.8994L23.8995 20.9296L21.4547 17.0879L25.9001 16.1V11.9ZM14.0001 18.2C13.1694 18.2 12.3574 17.9536 11.6667 17.4921C10.976 17.0306 10.4377 16.3747 10.1198 15.6072C9.80192 14.8398 9.71874 13.9953 9.8808 13.1806C10.0429 12.3659 10.4429 11.6175 11.0302 11.0301C11.6176 10.4427 12.366 10.0427 13.1807 9.88068C13.9954 9.71862 14.8399 9.80179 15.6074 10.1197C16.3748 10.4376 17.0308 10.9759 17.4923 11.6666C17.9538 12.3573 18.2001 13.1693 18.2001 14C18.2 15.1139 17.7575 16.1821 16.9699 16.9698C16.1822 17.7574 15.114 18.1999 14.0001 18.2Z" fill="#525D65"/>
</svg>
