<svg width="28" height="28" viewBox="0 0 28 28" fill="none" xmlns="http://www.w3.org/2000/svg">
<path fill-rule="evenodd" clip-rule="evenodd" d="M16 2V0H14V2L16 2ZM12 6V4H16V6H12ZM26 18H28V28H26H18V26H26V24H22V22H26V18ZM20 22H18V24H20V22ZM18 18H24V20H18H16V14H18V18ZM20 14H18V10H16V8H18V2V0H20H26H28V2V8V10H26H20V14ZM14 28V26H10V20V18H8H6V16H4V18H2H0V20V26V28H2H8H10H14ZM14 14V12H6V14H12V16H14V14ZM2 12H0V16H2V12ZM24 14V16H22V14H24ZM14 8V10H12V8H14ZM14 18V20H12V18H14ZM14 24V22H12V24H14ZM28 16V12H26V16H28ZM2 0H0V2V8V10H2H8H10V8V2V0H8H2ZM8 8L2 8V2L8 2V8ZM6 4H4V6H6V4ZM20 8L26 8V2L20 2V8ZM22 4H24V6H22V4ZM8 26H2V20H8V26ZM6 22H4V24H6V22Z" fill="white"/>
</svg>
